#!OML:ASF F:\VICON\USERDATA\INSTALL\rory3\rory3.ASF
:FULLY-SPECIFIED
:DEGREES
1035
root -0.0583686 15.3865 7.10864 16.916 -2.55078 -3.99592
lowerback -3.40314 0.0291875 3.18945
upperback -6.88391 0.0440509 0.325062
thorax -5.2233 -0.134804 -1.44707
lowerneck -4.92557 -15.0041 -16.4145
upperneck 10.3444 -20.0932 10.2783
head 6.63399 -9.90962 3.89118
rclavicle -7.24943e-015 1.19271e-015
rhumerus -27.2773 17.0738 -86.9382
rradius 36.0256
rwrist 9.9269
rhand -24.8724 -53.8848
rfingers 7.12502
rthumb 1.63479 -83.8583
lclavicle -7.24943e-015 1.19271e-015
lhumerus -41.8996 -2.1842 74.6218
lradius 46.6955
lwrist -0.295055
lhand -36.253 -49.2486
lfingers 7.12502
lthumb -9.35388 -19.4762
rfemur -49.4727 5.46447 16.8213
rtibia 67.168
rfoot -26.4931 -19.9971
rtoes -18.2819
lfemur -44.9003 8.25085 -6.39396
ltibia 64.2161
lfoot -29.0577 14.3422
ltoes -21.9773
1036
root -0.0495168 15.5681 7.15174 16.819 -2.36412 -3.87506
lowerback -3.87621 -0.00212446 3.24191
upperback -7.11387 -0.0122896 0.321722
thorax -5.20281 -0.168182 -1.47904
lowerneck -4.58756 -14.8842 -16.5226
upperneck 10.8417 -19.9745 9.99123
head 6.70168 -9.88564 3.84792
rclavicle -2.34193e-015 -7.95139e-016
rhumerus -28.4018 17.3729 -87.2821
rradius 36.8007
rwrist 10.1944
rhand -24.0804 -53.9172
rfingers 7.12502
rthumb 2.39975 -83.8834
lclavicle -2.34193e-015 -7.95139e-016
lhumerus -42.3638 -2.94622 74.7772
lradius 47.6191
lwrist -0.867853
lhand -35.4978 -48.044
lfingers 7.12502
lthumb -8.62521 -18.2402
rfemur -47.8116 4.88533 16.8366
rtibia 64.7932
rfoot -25.8635 -19.1244
rtoes -17.9953
lfemur -43.3289 7.53352 -6.58508
ltibia 61.7669
lfoot -27.9112 14.5729
ltoes -22.4952
1037
root -0.0384316 15.761 7.19582 16.6673 -2.28903 -3.97429
lowerback -4.38468 0.0521409 3.4916
upperback -7.16007 0.0400441 0.360785
thorax -4.96377 -0.150503 -1.57859
lowerneck -4.75241 -14.8504 -16.5199
upperneck 11.3826 -19.9094 9.72859
head 6.86603 -9.86338 3.75017
rclavicle 1.27389e-014 -1.98785e-015
rhumerus -29.3122 17.8185 -87.5939
rradius 37.6396
rwrist 10.0886
rhand -24.428 -53.2048
rfingers 7.12502
rthumb 2.06404 -83.1746
lclavicle 1.27389e-014 -1.98785e-015
lhumerus -42.5131 -3.71464 75.013
lradius 48.3407
lwrist -1.20278
lhand -35.6039 -48.0116
lfingers 7.12502
lthumb -8.72756 -18.212
rfemur -45.919 4.53818 17.0127
rtibia 62.1218
rfoot -25.0004 -18.1866
rtoes -18.031
lfemur -41.5177 7.03902 -6.56635
ltibia 59.068
lfoot -26.5585 14.5261
ltoes -22.8621
1038
root -0.0339302 15.9601 7.22823 16.502 -2.23783 -4.02863
lowerback -4.94503 0.0909927 3.59377
upperback -7.05985 0.0647091 0.380116
thorax -4.54104 -0.134433 -1.61601
lowerneck -5.07277 -14.8662 -16.2846
upperneck 11.7747 -19.8823 9.38573
head 6.98147 -9.84968 3.58562
rclavicle -2.86219e-015 -1.03368e-014
rhumerus -29.8072 18.4582 -87.9264
rradius 38.2016
rwrist 9.61171
rhand -24.9387 -52.6294
rfingers 7.12502
rthumb 1.57079 -82.6034
lclavicle -2.86219e-015 -1.03368e-014
lhumerus -42.2936 -4.51065 75.2193
lradius 48.7512
lwrist -1.25004
lhand -35.5734 -48.3995
lfingers 7.12502
lthumb -8.69811 -18.5987
rfemur -43.9847 4.33411 17.1108
rtibia 59.1762
rfoot -23.7941 -17.0292
rtoes -17.5959
lfemur -39.6151 6.56889 -6.53622
ltibia 56.0836
lfoot -25.0722 13.6453
ltoes -21.8437
1039
root -0.0336185 16.1721 7.261 16.3707 -2.23722 -3.7834
lowerback -5.42126 0.0777509 3.35312
upperback -7.1388 0.0317471 0.339418
thorax -4.35683 -0.138561 -1.52402
lowerneck -4.98935 -14.8114 -16.2217
upperneck 12.1632 -19.8165 9.11082
head 7.04915 -9.83625 3.49977
rclavicle -6.21202e-018 -5.76476e-015
rhumerus -30.5883 18.988 -88.3558
rradius 38.5881
rwrist 9.50949
rhand -25.04 -52.1329
rfingers 7.12502
rthumb 1.47291 -82.1076
lclavicle -6.21202e-018 -5.76476e-015
lhumerus -42.5649 -5.25789 75.3935
lradius 49.524
lwrist -1.24389
lhand -35.6994 -48.6031
lfingers 7.12502
lthumb -8.81972 -18.8074
rfemur -42.115 3.99215 16.9322
rtibia 56.1026
rfoot -21.6556 -16.0416
rtoes -17.5594
lfemur -37.6875 6.05858 -6.82888
ltibia 52.9321
lfoot -23.3525 12.436
ltoes -20.6688
1040
root -0.0333234 16.4326 7.30346 16.1979 -2.31841 -3.3756
lowerback -5.80644 0.0373375 2.97432
upperback -7.28847 -0.0268397 0.293285
thorax -4.29906 -0.152044 -1.36093
lowerneck -5.01175 -14.6657 -16.4417
upperneck 12.7988 -19.6212 8.96314
head 7.24202 -9.76213 3.49238
rclavicle 3.34207e-015 -5.76476e-015
rhumerus -31.5858 19.5734 -88.8761
rradius 38.8262
rwrist 9.27353
rhand -25.5559 -51.8066
rfingers 7.12502
rthumb 0.974715 -81.7841
lclavicle 3.34207e-015 -5.76476e-015
lhumerus -43.1736 -5.79215 75.5685
lradius 50.591
lwrist -1.33152
lhand -36.1143 -48.0332
lfingers 7.12502
lthumb -9.22013 -18.2548
rfemur -39.9734 3.6776 16.5801
rtibia 52.7514
rfoot -18.6964 -15.0952
rtoes -18.2401
lfemur -35.4741 5.51364 -7.34011
ltibia 49.4575
lfoot -20.9434 11.4469
ltoes -20.1985
1041
root -0.0331535 16.671 7.34331 16.0422 -2.32557 -3.21469
lowerback -6.22208 -0.00271991 2.83094
upperback -7.32419 -0.089831 0.322815
thorax -4.1059 -0.173868 -1.25218
lowerneck -5.43225 -14.5449 -16.5065
upperneck 13.4694 -19.4017 8.76055
head 7.48998 -9.66008 3.42233
rclavicle 8.72168e-015 -1.17283e-014
rhumerus -32.3177 20.0809 -89.324
rradius 38.9385
rwrist 8.8524
rhand -25.8966 -52.2496
rfingers 7.12502
rthumb 0.645582 -82.2284
lclavicle 8.72168e-015 -1.17283e-014
lhumerus -43.4296 -6.37286 75.8025
lradius 51.2509
lwrist -0.832419
lhand -36.3544 -47.626
lfingers 7.12502
lthumb -9.45179 -17.858
rfemur -37.8742 3.708 16.39
rtibia 49.3803
rfoot -15.5558 -14.1763
rtoes -20.0623
lfemur -33.3645 5.04643 -7.52374
ltibia 46.0532
lfoot -17.9021 10.3284
ltoes -19.7599
1042
root -0.0379335 16.9514 7.3853 16.0248 -2.4144 -2.96405
lowerback -6.67161 -0.018234 2.49751
upperback -7.45053 -0.113086 0.30435
thorax -3.98682 -0.1702 -1.08608
lowerneck -5.5926 -14.4476 -16.3724
upperneck 13.9848 -19.2497 8.47034
head 7.62364 -9.59747 3.31388
rclavicle 5.08143e-015 -2.5842e-015
rhumerus -33.0141 20.2353 -89.7315
rradius 38.9402
rwrist 8.90942
rhand -25.6607 -52.5887
rfingers 7.12502
rthumb 0.873464 -82.5666
lclavicle 5.08143e-015 -2.5842e-015
lhumerus -43.8067 -7.11138 76.0775
lradius 51.7189
lwrist 0.252615
lhand -36.4766 -48.4448
lfingers 7.12502
lthumb -9.56963 -18.6821
rfemur -35.9189 4.19619 15.9754
rtibia 45.876
rfoot -12.3141 -13.1308
rtoes -22.3573
lfemur -31.3528 4.60806 -7.78814
ltibia 42.5545
lfoot -14.6521 9.05234
ltoes -20.2192
1043
root -0.0210059 17.2481 7.41882 15.8372 -1.99925 -2.84254
lowerback -6.80418 -0.165524 2.7593
upperback -7.68045 -0.320654 0.252263
thorax -4.1684 -0.292826 -1.29227
lowerneck -5.25745 -14.3059 -16.2314
upperneck 14.331 -19.0996 8.15638
head 7.6155 -9.5555 3.2379
rclavicle -1.68967e-014 5.36719e-015
rhumerus -33.8798 20.377 -90.2962
rradius 38.6559
rwrist 9.13257
rhand -25.4374 -52.3852
rfingers 7.12502
rthumb 1.08908 -82.3622
lclavicle -1.68967e-014 5.36719e-015
lhumerus -44.5804 -7.63838 76.2418
lradius 52.2749
lwrist 0.939884
lhand -36.9018 -48.922
lfingers 7.12502
lthumb -9.97986 -19.1786
rfemur -33.7318 4.2417 15.6937
rtibia 42.4653
rfoot -9.1089 -11.6883
rtoes -25.8289
lfemur -29.5148 3.69822 -7.8313
ltibia 39.322
lfoot -11.2579 7.73409
ltoes -23.3502
1044
root -0.0294243 17.5375 7.45398 15.7568 -2.13179 -2.53099
lowerback -7.25701 -0.245426 2.33825
upperback -7.77755 -0.424732 0.244802
thorax -4.01784 -0.324232 -1.07012
lowerneck -5.30666 -14.2086 -16.1446
upperneck 14.7489 -18.9491 7.86272
head 7.70484 -9.50086 3.14396
rclavicle 1.75179e-015 -6.16232e-015
rhumerus -34.5682 20.6647 -90.8376
rradius 38.3218
rwrist 9.24502
rhand -25.2726 -52.2244
rfingers 7.12502
rthumb 1.2483 -82.2005
lclavicle 1.75179e-015 -6.16232e-015
lhumerus -45.1689 -7.90874 76.324
lradius 52.7583
lwrist 1.60984
lhand -37.3411 -48.3557
lfingers 7.12502
lthumb -10.4037 -18.6331
rfemur -32.0031 5.44653 15.0004
rtibia 39.1704
rfoot -5.29243 -10.6617
rtoes -29.9281
lfemur -27.8735 3.01096 -8.03592
ltibia 36.2091
lfoot -6.99183 6.49406
ltoes -26.5748
1045
root -0.0257756 17.8236 7.48024 15.6932 -2.14303 -2.35543
lowerback -7.65922 -0.33444 2.22791
upperback -7.7112 -0.550738 0.258384
thorax -3.72714 -0.378529 -1.00278
lowerneck -6.14696 -14.2111 -15.9178
upperneck 15.6028 -18.8131 7.3436
head 8.04099 -9.43682 2.88902
rclavicle 1.76173e-014 -1.59028e-015
rhumerus -34.8179 20.7601 -91.1403
rradius 38.0817
rwrist 9.39073
rhand -25.2388 -51.913
rfingers 7.12502
rthumb 1.28095 -81.8889
lclavicle 1.76173e-014 -1.59028e-015
lhumerus -45.5082 -8.1804 76.4377
lradius 53.0698
lwrist 2.93695
lhand -37.3915 -48.0689
lfingers 7.12502
lthumb -10.4523 -18.3487
rfemur -30.3883 6.4078 14.4674
rtibia 36.0206
rfoot -0.764303 -9.34378
rtoes -32.2335
lfemur -26.5368 2.02259 -8.05301
ltibia 33.3919
lfoot -1.79344 5.5033
ltoes -26.8306
1046
root -0.0188715 18.1059 7.49537 15.7161 -2.25556 -2.2163
lowerback -8.03777 -0.358761 2.18247
upperback -7.7023 -0.592198 0.232737
thorax -3.5094 -0.396028 -1.00926
lowerneck -6.7382 -14.1975 -15.6543
upperneck 16.3644 -18.6996 6.86767
head 8.31081 -9.38882 2.6596
rclavicle 1.16786e-015 7.35503e-015
rhumerus -34.9988 20.6661 -91.4213
rradius 37.82
rwrist 9.41052
rhand -25.3589 -51.4072
rfingers 7.12502
rthumb 1.16496 -81.3837
lclavicle 1.16786e-015 7.35503e-015
lhumerus -45.9838 -8.53262 76.5319
lradius 53.3455
lwrist 4.08217
lhand -37.4345 -48.4462
lfingers 7.12502
lthumb -10.4938 -18.7281
rfemur -29.1148 7.35579 13.9386
rtibia 33.0485
rfoot 4.27195 -8.09552
rtoes -33.1096
lfemur -25.5106 0.736896 -7.94191
ltibia 30.8241
lfoot 3.54676 5.47276
ltoes -24.6641
1047
root -0.0171297 18.3841 7.49372 15.9111 -2.4696 -2.17656
lowerback -8.37164 -0.356177 2.19116
upperback -7.87765 -0.596921 0.2241
thorax -3.51124 -0.40105 -1.02515
lowerneck -6.517 -14.1227 -15.725
upperneck 16.538 -18.6401 6.8783
head 8.33259 -9.37307 2.69287
rclavicle 5.60324e-015 -7.55382e-015
rhumerus -35.4908 20.7475 -91.9087
rradius 37.5363
rwrist 9.11808
rhand -25.6656 -50.7675
rfingers 7.12502
rthumb 0.868747 -80.7455
lclavicle 5.60324e-015 -7.55382e-015
lhumerus -46.6633 -8.94936 76.597
lradius 53.5485
lwrist 4.63044
lhand -37.6907 -48.9954
lfingers 7.12502
lthumb -10.7409 -19.29
rfemur -28.3705 8.43838 13.4418
rtibia 30.2209
rfoot 8.71115 -7.69586
rtoes -31.5128
lfemur -24.9198 -0.68024 -7.60942
ltibia 28.5934
lfoot 8.13742 6.53844
ltoes -21.0055
